# xmcd CD database file
#
# Track frame offsets:
#	150
#	15918
#	34646
#	50399
#
# Disc length: 919 seconds
#
# Revision: 1
# Processed by: cddbd v1.5.2PL0 Copyright (c) Steve Scherf et al.
# Submitted via: CDex 1.78
#
DISCID=20039504
DTITLE=Tohoshinki - Trick02-Runaway
DYEAR=2008
DGENRE=Jpop
TTITLE0=Runaway
TTITLE1=My Girlfriend
TTITLE2=Runaway(less vocal)
TTITLE3=My Girlfriend(less vocal)
EXTD=YEAR: 2008
EXTT0=
EXTT1=
EXTT2=
EXTT3=
PLAYORDER=
